<svg width="100" height="100" viewBox="0 0 100 100" fill="none" xmlns="http://www.w3.org/2000/svg">
<g clip-path="url(#clip0_46_132)">
<path d="M74.1935 98.3872H98.3871V74.1936" stroke="#C9A227" stroke-width="3"/>
<path d="M25.8068 1.61328H1.61328V25.8068" stroke="#C9A227" stroke-width="3"/>
<path d="M74.1934 1.61328H98.3869V25.8068" stroke="white" stroke-width="3"/>
<path d="M25.8068 98.3872H1.61328V74.1936" stroke="white" stroke-width="3"/>
<path d="M50.2631 58.6632C54.9023 58.6632 58.6631 54.9024 58.6631 50.2632C58.6631 45.6241 54.9023 41.8633 50.2631 41.8633C45.624 41.8633 41.8632 45.6241 41.8632 50.2632C41.8632 54.9024 45.624 58.6632 50.2631 58.6632Z" fill="white"/>
<path d="M61.7998 24H38.6999C34.8026 24.0044 31.0662 25.5546 28.3104 28.3104C25.5546 31.0662 24.0044 34.8026 24 38.6999V61.7998C24.0044 65.6971 25.5546 69.4335 28.3104 72.1893C31.0662 74.9451 34.8026 76.4953 38.6999 76.4997H61.7998C65.6971 76.4953 69.4335 74.9451 72.1893 72.1893C74.9451 69.4335 76.4953 65.6971 76.4997 61.7998V38.6999C76.4953 34.8026 74.9451 31.0662 72.1893 28.3104C69.4335 25.5546 65.6971 24.0044 61.7998 24ZM50.2498 62.8498C47.7578 62.8498 45.3217 62.1108 43.2497 60.7263C41.1777 59.3418 39.5627 57.374 38.609 55.0716C37.6554 52.7693 37.4059 50.2359 37.892 47.7917C38.3782 45.3476 39.5782 43.1025 41.3404 41.3404C43.1025 39.5782 45.3476 38.3782 47.7917 37.892C50.2359 37.4059 52.7693 37.6554 55.0716 38.609C57.374 39.5627 59.3418 41.1777 60.7263 43.2497C62.1108 45.3217 62.8498 47.7578 62.8498 50.2498C62.846 53.5904 61.5173 56.793 59.1552 59.1552C56.793 61.5173 53.5904 62.846 50.2498 62.8498ZM63.8998 39.7499C63.2768 39.7499 62.6677 39.5652 62.1497 39.219C61.6317 38.8729 61.228 38.381 60.9896 37.8054C60.7512 37.2298 60.6888 36.5964 60.8103 35.9854C60.9319 35.3744 61.2319 34.8131 61.6724 34.3726C62.1129 33.932 62.6742 33.632 63.2852 33.5105C63.8963 33.3889 64.5296 33.4513 65.1052 33.6897C65.6808 33.9281 66.1728 34.3319 66.5189 34.8499C66.865 35.3679 67.0497 35.9769 67.0497 36.5999C67.0497 37.4354 66.7179 38.2366 66.1271 38.8273C65.5364 39.418 64.7352 39.7499 63.8998 39.7499Z" fill="white"/>
</g>
<defs>
<clipPath id="clip0_46_132">
<rect width="100" height="100" fill="white"/>
</clipPath>
</defs>
</svg>
