<svg width="100" height="100" viewBox="0 0 100 100" fill="none" xmlns="http://www.w3.org/2000/svg">
<g clip-path="url(#clip0_46_140)">
<path d="M74.1935 98.3872H98.3871V74.1936" stroke="white" stroke-width="3"/>
<path d="M25.8068 1.61328H1.61328V25.8068" stroke="white" stroke-width="3"/>
<path d="M74.1934 1.61328H98.3869V25.8068" stroke="#C9A227" stroke-width="3"/>
<path d="M25.8068 98.3872H1.61328V74.1936" stroke="#C9A227" stroke-width="3"/>
<path d="M25.3749 47.8072C25.4952 47.7456 25.6154 47.6899 25.7327 47.6342C27.774 46.6869 29.8447 45.8011 31.9153 44.9154C32.0267 44.9154 32.2144 44.7864 32.32 44.7424L32.7981 44.5371C33.106 44.4051 33.4111 44.276 33.719 44.144C34.332 43.883 34.945 43.6191 35.5609 43.358C36.7868 42.833 38.0157 42.3081 39.2416 41.7831C41.6965 40.7331 44.1513 39.6831 46.6061 38.6332C49.061 37.5832 51.5158 36.5332 53.9706 35.4832C56.4254 34.4333 58.8803 33.3833 61.3351 32.3333C63.7899 31.2833 66.2448 30.2334 68.6996 29.1834C69.2451 28.9488 69.8375 28.5997 70.4212 28.4971C70.9139 28.4091 71.392 28.239 71.8847 28.1451C72.8232 27.9662 73.8556 27.8929 74.7531 28.283C75.064 28.4179 75.3484 28.6085 75.5889 28.8461C76.7269 29.9753 76.5685 31.8259 76.328 33.4097C74.6475 44.4608 72.9699 55.5119 71.2893 66.563C71.0576 68.0794 70.7467 69.7423 69.5501 70.7014C68.5383 71.5108 67.0953 71.6047 65.8459 71.2586C64.5965 70.9125 63.4908 70.1852 62.4115 69.4695C57.9212 66.4985 53.4339 63.5246 48.9436 60.5536C47.8761 59.8467 46.6882 58.9258 46.7 57.6471C46.7088 56.8757 47.1692 56.1894 47.6385 55.5765C51.5363 50.4908 57.1675 46.9919 61.3556 42.138C61.9451 41.4546 62.4115 40.2169 61.5991 39.8239C61.1181 39.5893 60.5608 39.906 60.1209 40.214C54.5865 44.059 49.0551 47.904 43.5207 51.749C41.7141 53.0043 39.8224 54.2918 37.6461 54.6027C35.7016 54.8784 33.7395 54.3358 31.8537 53.7845C30.2758 53.3211 28.6979 52.843 27.1259 52.3532C26.2929 52.0922 25.4307 51.8136 24.7854 51.227C24.1402 50.6404 23.7706 49.652 24.1578 48.8689C24.4012 48.3791 24.8763 48.0653 25.372 47.816L25.3749 47.8072Z" fill="white"/>
</g>
<defs>
<clipPath id="clip0_46_140">
<rect width="100" height="100" fill="white"/>
</clipPath>
</defs>
</svg>
