<svg width="64" height="64" viewBox="0 0 64 64" fill="none" xmlns="http://www.w3.org/2000/svg">
<rect x="1" y="1" width="62" height="62" rx="14.3077" stroke="#151515" stroke-width="0.953846"/>
<path d="M40.5846 32.0518C40.5846 27.2822 36.7408 23.415 32 23.415C27.2591 23.415 23.4154 27.2822 23.4154 32.0518C23.4154 36.363 26.5545 39.9358 30.6586 40.5836V34.5486H28.4789V32.0511H30.6586V30.1496C30.6586 27.9853 31.9406 26.7891 33.9015 26.7891C34.8401 26.7891 35.823 26.9583 35.823 26.9583V29.0837H34.7399C33.6733 29.0837 33.3406 29.7494 33.3406 30.4324V32.0518H35.7214L35.3408 34.5493H33.3406V40.5843C37.4455 39.9358 40.5846 36.3623 40.5846 32.0518Z" fill="#151515"/>
</svg>
