<svg width="64" height="64" viewBox="0 0 64 64" fill="none" xmlns="http://www.w3.org/2000/svg">
<rect x="1" y="1" width="62" height="62" rx="14.3077" stroke="#151515" stroke-width="0.953846"/>
<path d="M31.9998 28.9916C30.3387 28.9916 28.9922 30.3382 28.9922 31.9993C28.9922 33.6604 30.3387 35.007 31.9998 35.007C33.6609 35.007 35.0075 33.6604 35.0075 31.9993C35.0075 30.3382 33.6609 28.9916 31.9998 28.9916Z" fill="#151515"/>
<path fill-rule="evenodd" clip-rule="evenodd" d="M23.8922 31.7378C23.8922 28.4688 23.8922 26.8343 24.7246 25.6884C24.9935 25.3184 25.3189 24.993 25.689 24.7241C26.8348 23.8916 28.4693 23.8916 31.7383 23.8916H32.2614C35.5304 23.8916 37.1649 23.8916 38.3107 24.7241C38.6808 24.993 39.0062 25.3184 39.275 25.6884C40.1075 26.8343 40.1075 28.4688 40.1075 31.7378V32.2608C40.1075 35.5298 40.1075 37.1643 39.275 38.3102C39.0062 38.6802 38.6808 39.0056 38.3107 39.2745C37.1649 40.107 35.5304 40.107 32.2614 40.107H31.7383C28.4693 40.107 26.8348 40.107 25.689 39.2745C25.3189 39.0056 24.9935 38.6802 24.7246 38.3102C23.8922 37.1643 23.8922 35.5298 23.8922 32.2608V31.7378ZM27.5101 31.9993C27.5101 29.5197 29.5202 27.5096 31.9998 27.5096C34.4795 27.5096 36.4896 29.5197 36.4896 31.9993C36.4896 34.4789 34.4795 36.489 31.9998 36.489C29.5202 36.489 27.5101 34.4789 27.5101 31.9993ZM36.762 26.2454C36.2023 26.2454 35.7486 26.6992 35.7486 27.2589C35.7486 27.8186 36.2023 28.2724 36.762 28.2724C37.3217 28.2724 37.7755 27.8186 37.7755 27.2589C37.7755 26.6992 37.3217 26.2454 36.762 26.2454Z" fill="#151515"/>
</svg>
