<svg width="64" height="64" viewBox="0 0 64 64" fill="none" xmlns="http://www.w3.org/2000/svg">
<rect x="1" y="1" width="62" height="62" rx="14.3077" stroke="#151515" stroke-width="0.953846"/>
<path d="M23.6746 31.5677C25.4311 30.724 27.3918 30.0198 29.2238 29.3121C32.3755 28.1528 35.5397 27.0136 38.7359 25.9531C39.3577 25.7724 40.4751 25.5957 40.5846 26.3993C40.5246 27.5368 40.2778 28.6677 40.1086 29.7986C39.6789 32.2855 39.1823 34.7639 38.698 37.2426C38.5312 38.0682 37.3451 38.4956 36.5862 37.9672C34.7624 36.893 32.9245 35.8291 31.124 34.7299C30.5342 34.2073 31.0811 33.4567 31.6078 33.0835C33.11 31.7926 34.7031 30.6958 36.1267 29.3381C36.5108 28.5294 35.3761 29.211 35.0018 29.4198C32.9453 30.6556 30.9392 31.9669 28.771 33.053C27.6635 33.5846 26.3727 33.1303 25.2657 32.8336C24.2732 32.4753 22.8188 32.1141 23.6746 31.5677Z" fill="#151515"/>
</svg>
